<svg width="280" height="271" viewBox="0 0 280 271" fill="none" xmlns="http://www.w3.org/2000/svg">
<path fill-rule="evenodd" clip-rule="evenodd" d="M124.556 1.33984C108.884 3.25402 93.2495 13.8631 82.4463 29.9155C77.6782 36.9989 71.8812 51.0049 69.9479 60.1074C69.1746 63.7498 68.307 67.1968 68.0204 67.7665C67.7329 68.3362 63.8847 70.5627 59.4692 72.7129C44.5993 79.9548 45.9883 80.7515 46 86.5C46.0087 90.9279 49.7095 114.191 51.5 121.5L50.1991 123.861L30.9846 124.184C17.809 124.407 15.7497 124.079 15.5 125C15.2999 125.739 18.648 125.451 19.5 125.851C20.351 126.253 68.1716 126.973 134 127C253.548 127.049 252.189 127.417 252.5 125C252.802 122.64 253.681 123.912 235.609 123.912C214.987 123.912 213.514 126.345 215.5 117.5C216.015 115.206 218.167 105.84 219 99C220.23 88.9023 220.508 86.7157 219.5 85.5C218.816 84.6764 214.571 80.5126 208.534 76.8297C196.831 69.689 197.386 73.3504 194.5 61C189.847 41.0858 177.016 18.6175 162.667 9.51265C152.945 3.3434 136.69 -0.14288 124.556 1.33984ZM113.769 16.341C113.484 16.906 113.634 19.4531 114.102 22.0013C114.899 26.3351 114.223 34.223 112.57 39.8833C112.186 41.1944 109.429 48.7033 106.442 56.5698C101.115 70.596 101.009 71.08 101.005 81.5996C101 96.8058 104.105 103.461 114.103 109.672C117.735 111.929 119.998 112.383 127.481 112.353C136.061 112.321 136.75 112.12 142.053 108.119C145.115 105.809 148.619 102.116 149.839 99.9107C151.059 97.7057 152.698 94.9572 153.482 93.8034C154.265 92.6485 154.906 91.3589 154.906 90.9381C154.906 90.5174 155.95 87.4399 157.224 84.0978C158.499 80.7569 160.471 75.3422 161.606 72.0645C165.315 61.3505 167.222 57.8201 171.48 53.7856C174.555 50.8738 176.408 49.9417 178.407 50.3017C181.379 50.8368 181.835 49.4566 179.785 46.1408C177.879 43.0621 173.247 43.5925 168.602 47.4197C165.295 50.1455 160.884 56.5198 160.209 59.5496C160.136 59.8773 158.236 64.9727 155.985 70.8726C153.735 76.7724 150.747 84.6711 149.346 88.4244C145.041 99.9631 132.444 108.602 122.992 106.499C109.898 103.588 102.224 88.9417 106.781 75.5627C107.562 73.2671 112.572 66.1777 117.913 59.8082C123.254 53.4387 128.079 46.7164 128.636 44.8714C130.901 37.3565 129.283 31.3279 124.008 27.6295C121.459 25.8416 120.215 23.9215 119.46 20.6068C118.723 17.378 117.816 15.9382 116.353 15.6795C115.216 15.4781 114.053 15.7761 113.769 16.341ZM107.351 27.0943C102.378 30.0538 94.5601 40.2552 91.458 47.8332C83.9143 66.2599 84.366 82.2075 92.7327 92.7844C99.3593 101.161 100.072 100.157 99.678 83.0049L99.3399 68.3183L104.765 55.049C110.622 40.72 112.485 33.1873 111.395 28.2421L110.703 25.1003L107.351 27.0943Z" fill="#8DFF31"/>
<path d="M1.59091 151.327V146.909H24.8011V151.327H15.8097V176H10.5824V151.327H1.59091ZM47.6136 146.909H52.8835V165.915C52.8835 167.998 52.3911 169.83 51.4062 171.412C50.4309 172.993 49.0578 174.229 47.2869 175.119C45.5161 176 43.447 176.44 41.0795 176.44C38.7027 176.44 36.6288 176 34.858 175.119C33.0871 174.229 31.714 172.993 30.7386 171.412C29.7633 169.83 29.2756 167.998 29.2756 165.915V146.909H34.5455V165.474C34.5455 166.687 34.8106 167.766 35.3409 168.713C35.8807 169.66 36.6383 170.403 37.6136 170.943C38.589 171.473 39.7443 171.739 41.0795 171.739C42.4148 171.739 43.5701 171.473 44.5455 170.943C45.5303 170.403 46.2879 169.66 46.8182 168.713C47.3485 167.766 47.6136 166.687 47.6136 165.474V146.909ZM68.4695 176H58.6115V146.909H68.6683C71.5566 146.909 74.0376 147.491 76.1115 148.656C78.1948 149.812 79.7952 151.473 80.9126 153.642C82.0301 155.811 82.5888 158.405 82.5888 161.426C82.5888 164.456 82.0253 167.061 80.8984 169.239C79.781 171.417 78.1664 173.088 76.0547 174.253C73.9524 175.418 71.424 176 68.4695 176ZM63.8814 171.44H68.2138C70.2403 171.44 71.9306 171.071 73.2848 170.332C74.639 169.584 75.657 168.472 76.3388 166.994C77.0206 165.508 77.3615 163.652 77.3615 161.426C77.3615 159.201 77.0206 157.354 76.3388 155.886C75.657 154.409 74.6484 153.306 73.3132 152.577C71.9875 151.838 70.3397 151.469 68.37 151.469H63.8814V171.44ZM113.59 161.455C113.59 164.589 113.003 167.274 111.829 169.509C110.664 171.734 109.073 173.438 107.056 174.622C105.049 175.806 102.771 176.398 100.224 176.398C97.6764 176.398 95.3942 175.806 93.3771 174.622C91.3696 173.429 89.7786 171.72 88.6044 169.494C87.4396 167.259 86.8572 164.58 86.8572 161.455C86.8572 158.32 87.4396 155.64 88.6044 153.415C89.7786 151.18 91.3696 149.471 93.3771 148.287C95.3942 147.103 97.6764 146.511 100.224 146.511C102.771 146.511 105.049 147.103 107.056 148.287C109.073 149.471 110.664 151.18 111.829 153.415C113.003 155.64 113.59 158.32 113.59 161.455ZM108.292 161.455C108.292 159.248 107.946 157.387 107.255 155.872C106.573 154.348 105.626 153.197 104.414 152.42C103.202 151.634 101.805 151.241 100.224 151.241C98.6423 151.241 97.2455 151.634 96.0334 152.42C94.8213 153.197 93.8696 154.348 93.1783 155.872C92.4964 157.387 92.1555 159.248 92.1555 161.455C92.1555 163.661 92.4964 165.527 93.1783 167.051C93.8696 168.566 94.8213 169.717 96.0334 170.503C97.2455 171.279 98.6423 171.668 100.224 171.668C101.805 171.668 103.202 171.279 104.414 170.503C105.626 169.717 106.573 168.566 107.255 167.051C107.946 165.527 108.292 163.661 108.292 161.455ZM118.572 176V146.909H129.482C131.716 146.909 133.591 147.297 135.107 148.074C136.631 148.85 137.782 149.939 138.558 151.341C139.344 152.733 139.737 154.357 139.737 156.213C139.737 158.079 139.339 159.698 138.544 161.071C137.758 162.435 136.598 163.491 135.064 164.239C133.53 164.977 131.645 165.347 129.411 165.347H121.641V160.972H128.7C130.007 160.972 131.077 160.792 131.911 160.432C132.744 160.062 133.359 159.527 133.757 158.827C134.164 158.116 134.368 157.245 134.368 156.213C134.368 155.181 134.164 154.3 133.757 153.571C133.35 152.832 132.73 152.274 131.896 151.895C131.063 151.507 129.988 151.312 128.672 151.312H123.842V176H118.572ZM133.601 162.818L140.803 176H134.922L127.848 162.818H133.601ZM154.51 176V146.909H165.419C167.654 146.909 169.529 147.326 171.044 148.159C172.569 148.992 173.719 150.138 174.496 151.597C175.282 153.045 175.675 154.693 175.675 156.54C175.675 158.405 175.282 160.062 174.496 161.511C173.71 162.96 172.55 164.101 171.016 164.935C169.482 165.759 167.592 166.17 165.348 166.17H158.118V161.838H164.638C165.945 161.838 167.015 161.611 167.848 161.156C168.681 160.702 169.297 160.077 169.695 159.281C170.102 158.486 170.305 157.572 170.305 156.54C170.305 155.508 170.102 154.598 169.695 153.812C169.297 153.027 168.677 152.416 167.834 151.98C167 151.535 165.926 151.312 164.609 151.312H159.78V176H154.51ZM180.746 176H175.121L185.362 146.909H191.868L202.124 176H196.499L188.729 152.875H188.501L180.746 176ZM180.93 164.594H196.271V168.827H180.93V164.594ZM215.813 176H205.955V146.909H216.012C218.9 146.909 221.381 147.491 223.455 148.656C225.539 149.812 227.139 151.473 228.256 153.642C229.374 155.811 229.933 158.405 229.933 161.426C229.933 164.456 229.369 167.061 228.242 169.239C227.125 171.417 225.51 173.088 223.398 174.253C221.296 175.418 218.768 176 215.813 176ZM211.225 171.44H215.558C217.584 171.44 219.274 171.071 220.629 170.332C221.983 169.584 223.001 168.472 223.683 166.994C224.364 165.508 224.705 163.652 224.705 161.426C224.705 159.201 224.364 157.354 223.683 155.886C223.001 154.409 221.992 153.306 220.657 152.577C219.331 151.838 217.683 151.469 215.714 151.469H211.225V171.44ZM234.94 176V146.909H253.86V151.327H240.21V159.224H252.88V163.642H240.21V171.582H253.974V176H234.94ZM259.237 176V146.909H264.506V171.582H277.319V176H259.237Z" fill="#371E5F"/>
<path d="M132.286 201.782C147.289 201.78 162.294 201.796 176.302 201.829L170.816 210.256C162.293 223.343 145.286 246.727 136.466 257.545L135.638 258.552L133.344 261.318L120.248 244.878H120.247C110.969 233.233 99.8259 218.156 95.5037 211.441H95.5027L89.321 201.837C103.02 201.802 117.651 201.784 132.286 201.782ZM191.834 69.3213L192.261 71.3799L194.031 72.5137L205.845 80.085H205.846L215.35 86.1748L215.337 91.9531C215.326 96.2789 214.491 104.614 213.472 110.266C212.941 113.217 212.456 116.015 212.103 118.149C211.927 119.214 211.781 120.131 211.677 120.825C211.626 121.169 211.583 121.482 211.551 121.74C211.536 121.853 211.49 122.212 211.477 122.589C210.843 122.591 210.203 122.595 209.557 122.597C200.326 122.627 189.896 122.638 178.793 122.639C180.002 121.177 181.159 119.467 182.202 117.617L182.544 116.998C190.328 102.611 193.311 85.073 191.612 68.2549L191.834 69.3213ZM170.677 107.547C170.049 108.933 169.415 110.236 168.811 111.34C167.572 113.606 166.477 115.77 165.708 117.45C165.331 118.274 164.989 119.074 164.75 119.751C164.638 120.067 164.489 120.517 164.391 121.002C164.345 121.23 164.269 121.665 164.272 122.196C164.273 122.27 164.272 122.423 164.291 122.632C162.041 122.63 159.774 122.628 157.494 122.625L159.636 120.649C163.871 116.744 167.558 112.351 170.677 107.547ZM74.1716 65.1475C73.7303 69.1469 73.5421 73.7837 73.5671 78.2607C73.6019 84.4663 74.0489 90.9306 75.0066 95.4824L75.2048 96.3672C76.4225 101.452 78.2986 106.729 80.3982 111.285C82.3941 115.616 84.8018 119.75 87.3269 122.381C76.8777 122.322 67.0474 122.257 58.2781 122.182C57.5372 122.175 56.8044 122.168 56.0798 122.161L55.8748 121.164L53.7644 110.916V110.915C52.1143 102.903 50.9431 95.6649 50.3503 90.2441C50.0525 87.5201 49.9123 85.3576 49.9128 83.8291C49.9129 83.5507 49.9186 83.3083 49.9265 83.0996C50.3866 82.7936 50.9765 82.4241 51.6853 82.002C53.5601 80.8853 56.0501 79.5317 58.6785 78.2314V78.2324C64.5586 75.3246 70.1297 71.2052 70.9373 70.582C71.8883 69.8481 72.4734 68.9268 72.7839 68.3887C73.1536 67.7481 73.4741 67.0397 73.7527 66.3223C73.8956 65.9542 74.0345 65.5618 74.1716 65.1475ZM124.772 5.00195C125.466 4.9944 126.354 5.01126 127.407 5.0459C129.541 5.11609 132.035 5.24755 134.652 5.35938H134.653C148.039 5.92886 160.507 11.9048 170.397 22.0732C169.313 21.0578 168.198 20.0684 167.068 19.1201C162.329 15.1421 156.993 11.5692 152.206 9.56055C147.368 7.53099 140.865 6.36883 134.788 6C128.778 5.63529 122.357 5.99464 117.793 7.57324C113.75 8.97181 109.918 10.7901 106.323 12.9863C112.409 8.86404 118.596 6.02816 123.816 5.03613L123.817 5.03516C123.742 5.04939 123.983 5.01054 124.772 5.00195Z" fill="url(#paint0_linear_279_12)" fill-opacity="0.812" stroke="#371E5F" stroke-width="10"/>
<defs>
<linearGradient id="paint0_linear_279_12" x1="156.111" y1="115.432" x2="156.111" y2="384.439" gradientUnits="userSpaceOnUse">
<stop stop-color="#7DE628"/>
<stop offset="0.259042" stop-color="#B8244C"/>
<stop offset="0.5" stop-color="#DF4943"/>
<stop offset="0.75" stop-color="#BB2153"/>
<stop offset="1" stop-color="#E94440"/>
</linearGradient>
</defs>
</svg>
